<svg xmlns="http://www.w3.org/2000/svg" xmlns:xlink="http://www.w3.org/1999/xlink" width="1366" zoomAndPan="magnify" viewBox="0 0 1024.5 576" height="768" preserveAspectRatio="xMidYMid meet" version="1.0"><defs><filter x="0%" y="0%" width="100%" height="100%" id="642930b732"><feColorMatrix values="0 0 0 0 1 0 0 0 0 1 0 0 0 0 1 0 0 0 1 0" color-interpolation-filters="sRGB"/></filter><g/><mask id="9b4b2f8ca0"><g filter="url(#642930b732)"><rect x="-102.45" width="1229.4" fill="#000000" y="-57.6" height="691.2" fill-opacity="0.4"/></g></mask><clipPath id="c650c09423"><path d="M 0.234375 0.160156 L 534 0.160156 L 534 4.238281 L 0.234375 4.238281 Z M 0.234375 0.160156 " clip-rule="nonzero"/></clipPath><clipPath id="30c773ce0b"><rect x="0" width="535" y="0" height="5"/></clipPath><mask id="4ad868b3c2"><g filter="url(#642930b732)"><rect x="-102.45" width="1229.4" fill="#000000" y="-57.6" height="691.2" fill-opacity="0.4"/></g></mask><clipPath id="a76bce020b"><path d="M 0.234375 0.171875 L 534 0.171875 L 534 4 L 0.234375 4 Z M 0.234375 0.171875 " clip-rule="nonzero"/></clipPath><clipPath id="1329257a26"><rect x="0" width="535" y="0" height="5"/></clipPath><mask id="be1ec3c0b7"><g filter="url(#642930b732)"><rect x="-102.45" width="1229.4" fill="#000000" y="-57.6" height="691.2" fill-opacity="0.4"/></g></mask><clipPath id="b7e7e79a1d"><path d="M 0.308594 0.285156 L 427 0.285156 L 427 4.363281 L 0.308594 4.363281 Z M 0.308594 0.285156 " clip-rule="nonzero"/></clipPath><clipPath id="a2b095ff16"><rect x="0" width="427" y="0" height="5"/></clipPath><mask id="46e56111f1"><g filter="url(#642930b732)"><rect x="-102.45" width="1229.4" fill="#000000" y="-57.6" height="691.2" fill-opacity="0.4"/></g></mask><clipPath id="2d4c8c03bb"><path d="M 0.308594 0.792969 L 427 0.792969 L 427 4.628906 L 0.308594 4.628906 Z M 0.308594 0.792969 " clip-rule="nonzero"/></clipPath><clipPath id="3541bc7e35"><rect x="0" width="427" y="0" height="5"/></clipPath><clipPath id="be2aa97c75"><path d="M 886 336 L 1024 336 L 1024 479 L 886 479 Z M 886 336 " clip-rule="nonzero"/></clipPath></defs><g mask="url(#9b4b2f8ca0)"><g transform="matrix(1, 0, 0, 1, 261, 207)"><g clip-path="url(#30c773ce0b)"><g clip-path="url(#c650c09423)"><path stroke-linecap="butt" transform="matrix(0.749634, 0, 0, 0.749634, 2.657768, 0.272496)" fill="none" stroke-linejoin="miter" d="M -0.00202469 2.502476 L 706.227924 2.502476 " stroke="#f60101" stroke-width="5" stroke-opacity="1" stroke-miterlimit="4"/></g></g></g></g><g mask="url(#4ad868b3c2)"><g transform="matrix(1, 0, 0, 1, 261, 260)"><g clip-path="url(#1329257a26)"><g clip-path="url(#a76bce020b)"><path stroke-linecap="butt" transform="matrix(0.749634, 0, 0, 0.749634, 2.657768, 0.213795)" fill="none" stroke-linejoin="miter" d="M -0.00202469 2.497409 L 706.227924 2.497409 " stroke="#f60101" stroke-width="5" stroke-opacity="1" stroke-miterlimit="4"/></g></g></g></g><g fill="#0e9427" fill-opacity="0.302"><g transform="translate(14.895113, 301.688924)"><g><path d="M 35.4375 -24.4375 C 17.613281 -41.75 8.703125 -63.707031 8.703125 -90.3125 C 8.703125 -116.925781 17.613281 -138.890625 35.4375 -156.203125 C 53.257812 -173.523438 75.050781 -182.1875 100.8125 -182.1875 C 120.769531 -182.1875 138.507812 -176.894531 154.03125 -166.3125 C 169.5625 -155.738281 180.394531 -141.070312 186.53125 -122.3125 L 134.328125 -122.3125 C 127.503906 -135.445312 116.585938 -142.015625 101.578125 -142.015625 C 86.566406 -142.015625 74.753906 -137.320312 66.140625 -127.9375 C 57.523438 -118.550781 53.21875 -106.007812 53.21875 -90.3125 C 53.21875 -74.625 57.523438 -62.085938 66.140625 -52.703125 C 74.753906 -43.328125 86.3125 -38.640625 100.8125 -38.640625 C 111.21875 -38.640625 119.703125 -41.238281 126.265625 -46.4375 C 132.835938 -51.644531 137.234375 -58.597656 139.453125 -67.296875 L 88.78125 -67.296875 L 88.78125 -100.5625 L 186.53125 -100.5625 L 186.53125 -67.296875 C 183.289062 -50.921875 174.335938 -35.65625 159.671875 -21.5 C 152.671875 -14.675781 144.007812 -9.128906 133.6875 -4.859375 C 123.375 -0.597656 112.414062 1.53125 100.8125 1.53125 C 75.050781 1.53125 53.257812 -7.125 35.4375 -24.4375 Z M 35.4375 -24.4375 "/></g></g></g><g fill="#0e9427" fill-opacity="0.302"><g transform="translate(203.979633, 301.688924)"><g><path d="M 104.90625 -44.765625 C 110.707031 -50.910156 113.609375 -59.78125 113.609375 -71.375 C 113.609375 -82.976562 110.625 -91.804688 104.65625 -97.859375 C 98.6875 -103.921875 91.609375 -106.953125 83.421875 -106.953125 C 75.234375 -106.953125 68.195312 -103.921875 62.3125 -97.859375 C 56.425781 -91.804688 53.484375 -82.976562 53.484375 -71.375 C 53.484375 -59.78125 56.507812 -50.910156 62.5625 -44.765625 C 68.613281 -38.628906 75.734375 -35.5625 83.921875 -35.5625 C 92.109375 -35.5625 99.101562 -38.628906 104.90625 -44.765625 Z M 30.578125 -18.421875 C 16.160156 -31.898438 8.953125 -49.640625 8.953125 -71.640625 C 8.953125 -93.648438 16.113281 -111.265625 30.4375 -124.484375 C 44.769531 -137.703125 62.515625 -144.3125 83.671875 -144.3125 C 104.828125 -144.3125 122.523438 -137.703125 136.765625 -124.484375 C 151.003906 -111.265625 158.125 -93.648438 158.125 -71.640625 C 158.125 -49.640625 151.046875 -31.898438 136.890625 -18.421875 C 122.734375 -4.941406 105.078125 1.796875 83.921875 1.796875 C 62.773438 1.796875 44.992188 -4.941406 30.578125 -18.421875 Z M 30.578125 -18.421875 "/></g></g></g><g fill="#0e9427" fill-opacity="0.302"><g transform="translate(364.663018, 301.688924)"><g><path d="M 104.90625 -44.765625 C 110.707031 -50.910156 113.609375 -59.78125 113.609375 -71.375 C 113.609375 -82.976562 110.625 -91.804688 104.65625 -97.859375 C 98.6875 -103.921875 91.609375 -106.953125 83.421875 -106.953125 C 75.234375 -106.953125 68.195312 -103.921875 62.3125 -97.859375 C 56.425781 -91.804688 53.484375 -82.976562 53.484375 -71.375 C 53.484375 -59.78125 56.507812 -50.910156 62.5625 -44.765625 C 68.613281 -38.628906 75.734375 -35.5625 83.921875 -35.5625 C 92.109375 -35.5625 99.101562 -38.628906 104.90625 -44.765625 Z M 30.578125 -18.421875 C 16.160156 -31.898438 8.953125 -49.640625 8.953125 -71.640625 C 8.953125 -93.648438 16.113281 -111.265625 30.4375 -124.484375 C 44.769531 -137.703125 62.515625 -144.3125 83.671875 -144.3125 C 104.828125 -144.3125 122.523438 -137.703125 136.765625 -124.484375 C 151.003906 -111.265625 158.125 -93.648438 158.125 -71.640625 C 158.125 -49.640625 151.046875 -31.898438 136.890625 -18.421875 C 122.734375 -4.941406 105.078125 1.796875 83.921875 1.796875 C 62.773438 1.796875 44.992188 -4.941406 30.578125 -18.421875 Z M 30.578125 -18.421875 "/></g></g></g><g fill="#0e9427" fill-opacity="0.302"><g transform="translate(525.346404, 301.688924)"><g><path d="M 106.1875 -45.28125 C 112.5 -51.425781 115.65625 -60.128906 115.65625 -71.390625 C 115.65625 -82.648438 112.5 -91.304688 106.1875 -97.359375 C 99.875 -103.410156 92.625 -106.4375 84.4375 -106.4375 C 76.25 -106.4375 69 -103.363281 62.6875 -97.21875 C 56.375 -91.082031 53.21875 -82.382812 53.21875 -71.125 C 53.21875 -59.875 56.375 -51.21875 62.6875 -45.15625 C 69 -39.101562 76.25 -36.078125 84.4375 -36.078125 C 92.625 -36.078125 99.875 -39.144531 106.1875 -45.28125 Z M 27.625 -18.671875 C 15.007812 -32.328125 8.703125 -49.816406 8.703125 -71.140625 C 8.703125 -92.460938 15.007812 -109.988281 27.625 -123.71875 C 40.25 -137.445312 55.644531 -144.3125 73.8125 -144.3125 C 91.988281 -144.3125 105.9375 -137.570312 115.65625 -124.09375 L 115.65625 -189.34375 L 159.40625 -189.34375 L 159.40625 0 L 115.65625 0 L 115.65625 -20.71875 C 105.082031 -5.707031 90.921875 1.796875 73.171875 1.796875 C 55.429688 1.796875 40.25 -5.023438 27.625 -18.671875 Z M 27.625 -18.671875 "/></g></g></g><g fill="#0e9427" fill-opacity="0.502"><g transform="translate(5.848289, 292.642102)"><g><path d="M 35.4375 -24.4375 C 17.613281 -41.75 8.703125 -63.707031 8.703125 -90.3125 C 8.703125 -116.925781 17.613281 -138.890625 35.4375 -156.203125 C 53.257812 -173.523438 75.050781 -182.1875 100.8125 -182.1875 C 120.769531 -182.1875 138.507812 -176.894531 154.03125 -166.3125 C 169.5625 -155.738281 180.394531 -141.070312 186.53125 -122.3125 L 134.328125 -122.3125 C 127.503906 -135.445312 116.585938 -142.015625 101.578125 -142.015625 C 86.566406 -142.015625 74.753906 -137.320312 66.140625 -127.9375 C 57.523438 -118.550781 53.21875 -106.007812 53.21875 -90.3125 C 53.21875 -74.625 57.523438 -62.085938 66.140625 -52.703125 C 74.753906 -43.328125 86.3125 -38.640625 100.8125 -38.640625 C 111.21875 -38.640625 119.703125 -41.238281 126.265625 -46.4375 C 132.835938 -51.644531 137.234375 -58.597656 139.453125 -67.296875 L 88.78125 -67.296875 L 88.78125 -100.5625 L 186.53125 -100.5625 L 186.53125 -67.296875 C 183.289062 -50.921875 174.335938 -35.65625 159.671875 -21.5 C 152.671875 -14.675781 144.007812 -9.128906 133.6875 -4.859375 C 123.375 -0.597656 112.414062 1.53125 100.8125 1.53125 C 75.050781 1.53125 53.257812 -7.125 35.4375 -24.4375 Z M 35.4375 -24.4375 "/></g></g></g><g fill="#0e9427" fill-opacity="0.502"><g transform="translate(194.932809, 292.642102)"><g><path d="M 104.90625 -44.765625 C 110.707031 -50.910156 113.609375 -59.78125 113.609375 -71.375 C 113.609375 -82.976562 110.625 -91.804688 104.65625 -97.859375 C 98.6875 -103.921875 91.609375 -106.953125 83.421875 -106.953125 C 75.234375 -106.953125 68.195312 -103.921875 62.3125 -97.859375 C 56.425781 -91.804688 53.484375 -82.976562 53.484375 -71.375 C 53.484375 -59.78125 56.507812 -50.910156 62.5625 -44.765625 C 68.613281 -38.628906 75.734375 -35.5625 83.921875 -35.5625 C 92.109375 -35.5625 99.101562 -38.628906 104.90625 -44.765625 Z M 30.578125 -18.421875 C 16.160156 -31.898438 8.953125 -49.640625 8.953125 -71.640625 C 8.953125 -93.648438 16.113281 -111.265625 30.4375 -124.484375 C 44.769531 -137.703125 62.515625 -144.3125 83.671875 -144.3125 C 104.828125 -144.3125 122.523438 -137.703125 136.765625 -124.484375 C 151.003906 -111.265625 158.125 -93.648438 158.125 -71.640625 C 158.125 -49.640625 151.046875 -31.898438 136.890625 -18.421875 C 122.734375 -4.941406 105.078125 1.796875 83.921875 1.796875 C 62.773438 1.796875 44.992188 -4.941406 30.578125 -18.421875 Z M 30.578125 -18.421875 "/></g></g></g><g fill="#0e9427" fill-opacity="0.502"><g transform="translate(355.616194, 292.642102)"><g><path d="M 104.90625 -44.765625 C 110.707031 -50.910156 113.609375 -59.78125 113.609375 -71.375 C 113.609375 -82.976562 110.625 -91.804688 104.65625 -97.859375 C 98.6875 -103.921875 91.609375 -106.953125 83.421875 -106.953125 C 75.234375 -106.953125 68.195312 -103.921875 62.3125 -97.859375 C 56.425781 -91.804688 53.484375 -82.976562 53.484375 -71.375 C 53.484375 -59.78125 56.507812 -50.910156 62.5625 -44.765625 C 68.613281 -38.628906 75.734375 -35.5625 83.921875 -35.5625 C 92.109375 -35.5625 99.101562 -38.628906 104.90625 -44.765625 Z M 30.578125 -18.421875 C 16.160156 -31.898438 8.953125 -49.640625 8.953125 -71.640625 C 8.953125 -93.648438 16.113281 -111.265625 30.4375 -124.484375 C 44.769531 -137.703125 62.515625 -144.3125 83.671875 -144.3125 C 104.828125 -144.3125 122.523438 -137.703125 136.765625 -124.484375 C 151.003906 -111.265625 158.125 -93.648438 158.125 -71.640625 C 158.125 -49.640625 151.046875 -31.898438 136.890625 -18.421875 C 122.734375 -4.941406 105.078125 1.796875 83.921875 1.796875 C 62.773438 1.796875 44.992188 -4.941406 30.578125 -18.421875 Z M 30.578125 -18.421875 "/></g></g></g><g fill="#0e9427" fill-opacity="0.502"><g transform="translate(516.299579, 292.642102)"><g><path d="M 106.1875 -45.28125 C 112.5 -51.425781 115.65625 -60.128906 115.65625 -71.390625 C 115.65625 -82.648438 112.5 -91.304688 106.1875 -97.359375 C 99.875 -103.410156 92.625 -106.4375 84.4375 -106.4375 C 76.25 -106.4375 69 -103.363281 62.6875 -97.21875 C 56.375 -91.082031 53.21875 -82.382812 53.21875 -71.125 C 53.21875 -59.875 56.375 -51.21875 62.6875 -45.15625 C 69 -39.101562 76.25 -36.078125 84.4375 -36.078125 C 92.625 -36.078125 99.875 -39.144531 106.1875 -45.28125 Z M 27.625 -18.671875 C 15.007812 -32.328125 8.703125 -49.816406 8.703125 -71.140625 C 8.703125 -92.460938 15.007812 -109.988281 27.625 -123.71875 C 40.25 -137.445312 55.644531 -144.3125 73.8125 -144.3125 C 91.988281 -144.3125 105.9375 -137.570312 115.65625 -124.09375 L 115.65625 -189.34375 L 159.40625 -189.34375 L 159.40625 0 L 115.65625 0 L 115.65625 -20.71875 C 105.082031 -5.707031 90.921875 1.796875 73.171875 1.796875 C 55.429688 1.796875 40.25 -5.023438 27.625 -18.671875 Z M 27.625 -18.671875 "/></g></g></g><g fill="#1649ff" fill-opacity="1"><g transform="translate(-3.198535, 283.595278)"><g><path d="M 35.4375 -24.4375 C 17.613281 -41.75 8.703125 -63.707031 8.703125 -90.3125 C 8.703125 -116.925781 17.613281 -138.890625 35.4375 -156.203125 C 53.257812 -173.523438 75.050781 -182.1875 100.8125 -182.1875 C 120.769531 -182.1875 138.507812 -176.894531 154.03125 -166.3125 C 169.5625 -155.738281 180.394531 -141.070312 186.53125 -122.3125 L 134.328125 -122.3125 C 127.503906 -135.445312 116.585938 -142.015625 101.578125 -142.015625 C 86.566406 -142.015625 74.753906 -137.320312 66.140625 -127.9375 C 57.523438 -118.550781 53.21875 -106.007812 53.21875 -90.3125 C 53.21875 -74.625 57.523438 -62.085938 66.140625 -52.703125 C 74.753906 -43.328125 86.3125 -38.640625 100.8125 -38.640625 C 111.21875 -38.640625 119.703125 -41.238281 126.265625 -46.4375 C 132.835938 -51.644531 137.234375 -58.597656 139.453125 -67.296875 L 88.78125 -67.296875 L 88.78125 -100.5625 L 186.53125 -100.5625 L 186.53125 -67.296875 C 183.289062 -50.921875 174.335938 -35.65625 159.671875 -21.5 C 152.671875 -14.675781 144.007812 -9.128906 133.6875 -4.859375 C 123.375 -0.597656 112.414062 1.53125 100.8125 1.53125 C 75.050781 1.53125 53.257812 -7.125 35.4375 -24.4375 Z M 35.4375 -24.4375 "/></g></g></g><g fill="#1649ff" fill-opacity="1"><g transform="translate(185.885985, 283.595278)"><g><path d="M 104.90625 -44.765625 C 110.707031 -50.910156 113.609375 -59.78125 113.609375 -71.375 C 113.609375 -82.976562 110.625 -91.804688 104.65625 -97.859375 C 98.6875 -103.921875 91.609375 -106.953125 83.421875 -106.953125 C 75.234375 -106.953125 68.195312 -103.921875 62.3125 -97.859375 C 56.425781 -91.804688 53.484375 -82.976562 53.484375 -71.375 C 53.484375 -59.78125 56.507812 -50.910156 62.5625 -44.765625 C 68.613281 -38.628906 75.734375 -35.5625 83.921875 -35.5625 C 92.109375 -35.5625 99.101562 -38.628906 104.90625 -44.765625 Z M 30.578125 -18.421875 C 16.160156 -31.898438 8.953125 -49.640625 8.953125 -71.640625 C 8.953125 -93.648438 16.113281 -111.265625 30.4375 -124.484375 C 44.769531 -137.703125 62.515625 -144.3125 83.671875 -144.3125 C 104.828125 -144.3125 122.523438 -137.703125 136.765625 -124.484375 C 151.003906 -111.265625 158.125 -93.648438 158.125 -71.640625 C 158.125 -49.640625 151.046875 -31.898438 136.890625 -18.421875 C 122.734375 -4.941406 105.078125 1.796875 83.921875 1.796875 C 62.773438 1.796875 44.992188 -4.941406 30.578125 -18.421875 Z M 30.578125 -18.421875 "/></g></g></g><g fill="#1649ff" fill-opacity="1"><g transform="translate(346.56937, 283.595278)"><g><path d="M 104.90625 -44.765625 C 110.707031 -50.910156 113.609375 -59.78125 113.609375 -71.375 C 113.609375 -82.976562 110.625 -91.804688 104.65625 -97.859375 C 98.6875 -103.921875 91.609375 -106.953125 83.421875 -106.953125 C 75.234375 -106.953125 68.195312 -103.921875 62.3125 -97.859375 C 56.425781 -91.804688 53.484375 -82.976562 53.484375 -71.375 C 53.484375 -59.78125 56.507812 -50.910156 62.5625 -44.765625 C 68.613281 -38.628906 75.734375 -35.5625 83.921875 -35.5625 C 92.109375 -35.5625 99.101562 -38.628906 104.90625 -44.765625 Z M 30.578125 -18.421875 C 16.160156 -31.898438 8.953125 -49.640625 8.953125 -71.640625 C 8.953125 -93.648438 16.113281 -111.265625 30.4375 -124.484375 C 44.769531 -137.703125 62.515625 -144.3125 83.671875 -144.3125 C 104.828125 -144.3125 122.523438 -137.703125 136.765625 -124.484375 C 151.003906 -111.265625 158.125 -93.648438 158.125 -71.640625 C 158.125 -49.640625 151.046875 -31.898438 136.890625 -18.421875 C 122.734375 -4.941406 105.078125 1.796875 83.921875 1.796875 C 62.773438 1.796875 44.992188 -4.941406 30.578125 -18.421875 Z M 30.578125 -18.421875 "/></g></g></g><g fill="#1649ff" fill-opacity="1"><g transform="translate(507.252756, 283.595278)"><g><path d="M 106.1875 -45.28125 C 112.5 -51.425781 115.65625 -60.128906 115.65625 -71.390625 C 115.65625 -82.648438 112.5 -91.304688 106.1875 -97.359375 C 99.875 -103.410156 92.625 -106.4375 84.4375 -106.4375 C 76.25 -106.4375 69 -103.363281 62.6875 -97.21875 C 56.375 -91.082031 53.21875 -82.382812 53.21875 -71.125 C 53.21875 -59.875 56.375 -51.21875 62.6875 -45.15625 C 69 -39.101562 76.25 -36.078125 84.4375 -36.078125 C 92.625 -36.078125 99.875 -39.144531 106.1875 -45.28125 Z M 27.625 -18.671875 C 15.007812 -32.328125 8.703125 -49.816406 8.703125 -71.140625 C 8.703125 -92.460938 15.007812 -109.988281 27.625 -123.71875 C 40.25 -137.445312 55.644531 -144.3125 73.8125 -144.3125 C 91.988281 -144.3125 105.9375 -137.570312 115.65625 -124.09375 L 115.65625 -189.34375 L 159.40625 -189.34375 L 159.40625 0 L 115.65625 0 L 115.65625 -20.71875 C 105.082031 -5.707031 90.921875 1.796875 73.171875 1.796875 C 55.429688 1.796875 40.25 -5.023438 27.625 -18.671875 Z M 27.625 -18.671875 "/></g></g></g><g mask="url(#be1ec3c0b7)"><g transform="matrix(1, 0, 0, 1, 597, 441)"><g clip-path="url(#a2b095ff16)"><g clip-path="url(#b7e7e79a1d)"><path stroke-linecap="butt" transform="matrix(0.749634, 0, 0, 0.749634, 2.57066, 0.423171)" fill="none" stroke-linejoin="miter" d="M -0.000462959 2.499491 L 706.229486 2.499491 " stroke="#f60101" stroke-width="5" stroke-opacity="1" stroke-miterlimit="4"/></g></g></g></g><g mask="url(#46e56111f1)"><g transform="matrix(1, 0, 0, 1, 597, 387)"><g clip-path="url(#3541bc7e35)"><g clip-path="url(#2d4c8c03bb)"><path stroke-linecap="butt" transform="matrix(0.749634, 0, 0, 0.749634, 2.57066, 0.826587)" fill="none" stroke-linejoin="miter" d="M -0.000462959 2.498061 L 706.229486 2.498061 " stroke="#f60101" stroke-width="5" stroke-opacity="1" stroke-miterlimit="4"/></g></g></g></g><g fill="#7610ad" fill-opacity="0.302"><g transform="translate(461.614061, 478.934162)"><g><path d="M 6.90625 -146.359375 L 6.90625 -179.625 L 148.65625 -179.625 L 148.65625 -146.359375 L 99.53125 -146.359375 L 99.53125 0 L 55.78125 0 L 55.78125 -146.359375 Z M 6.90625 -146.359375 "/></g></g></g><g fill="#7610ad" fill-opacity="0.302"><g transform="translate(610.783486, 478.934162)"><g><path d="M 62.9375 -142.78125 L 62.9375 -116.171875 C 73.175781 -134.929688 86.828125 -144.3125 103.890625 -144.3125 L 103.890625 -99.796875 L 93.140625 -99.796875 C 83.078125 -99.796875 75.523438 -97.40625 70.484375 -92.625 C 65.453125 -87.851562 62.9375 -79.492188 62.9375 -67.546875 L 62.9375 0 L 19.1875 0 L 19.1875 -142.78125 Z M 62.9375 -142.78125 "/></g></g></g><g fill="#7610ad" fill-opacity="0.302"><g transform="translate(712.873563, 478.934162)"><g><path d="M 106.1875 -45.28125 C 112.5 -51.425781 115.65625 -60.128906 115.65625 -71.390625 C 115.65625 -82.648438 112.5 -91.304688 106.1875 -97.359375 C 99.875 -103.410156 92.625 -106.4375 84.4375 -106.4375 C 76.25 -106.4375 69 -103.363281 62.6875 -97.21875 C 56.375 -91.082031 53.21875 -82.382812 53.21875 -71.125 C 53.21875 -59.875 56.375 -51.21875 62.6875 -45.15625 C 69 -39.101562 76.25 -36.078125 84.4375 -36.078125 C 92.625 -36.078125 99.875 -39.144531 106.1875 -45.28125 Z M 27.625 -18.671875 C 15.007812 -32.328125 8.703125 -49.816406 8.703125 -71.140625 C 8.703125 -92.460938 15.007812 -109.988281 27.625 -123.71875 C 40.25 -137.445312 55.644531 -144.3125 73.8125 -144.3125 C 91.988281 -144.3125 105.9375 -137.570312 115.65625 -124.09375 L 115.65625 -142.78125 L 159.40625 -142.78125 L 159.40625 0 L 115.65625 0 L 115.65625 -20.71875 C 105.082031 -5.707031 90.921875 1.796875 73.171875 1.796875 C 55.429688 1.796875 40.25 -5.023438 27.625 -18.671875 Z M 27.625 -18.671875 "/></g></g></g><g clip-path="url(#be2aa97c75)"><g fill="#7610ad" fill-opacity="0.302"><g transform="translate(885.070909, 478.934162)"><g><path d="M 139.703125 -142.78125 L 93.65625 -73.6875 L 139.703125 0 L 90.578125 0 L 67.296875 -37.109375 L 44.265625 0 L 1.03125 0 L 47.34375 -69.09375 L 1.03125 -142.78125 L 50.15625 -142.78125 L 73.4375 -105.671875 L 96.46875 -142.78125 Z M 139.703125 -142.78125 "/></g></g></g></g><g fill="#7610ad" fill-opacity="0.502"><g transform="translate(452.567237, 469.887338)"><g><path d="M 6.90625 -146.359375 L 6.90625 -179.625 L 148.65625 -179.625 L 148.65625 -146.359375 L 99.53125 -146.359375 L 99.53125 0 L 55.78125 0 L 55.78125 -146.359375 Z M 6.90625 -146.359375 "/></g></g></g><g fill="#7610ad" fill-opacity="0.502"><g transform="translate(601.736661, 469.887338)"><g><path d="M 62.9375 -142.78125 L 62.9375 -116.171875 C 73.175781 -134.929688 86.828125 -144.3125 103.890625 -144.3125 L 103.890625 -99.796875 L 93.140625 -99.796875 C 83.078125 -99.796875 75.523438 -97.40625 70.484375 -92.625 C 65.453125 -87.851562 62.9375 -79.492188 62.9375 -67.546875 L 62.9375 0 L 19.1875 0 L 19.1875 -142.78125 Z M 62.9375 -142.78125 "/></g></g></g><g fill="#7610ad" fill-opacity="0.502"><g transform="translate(703.826739, 469.887338)"><g><path d="M 106.1875 -45.28125 C 112.5 -51.425781 115.65625 -60.128906 115.65625 -71.390625 C 115.65625 -82.648438 112.5 -91.304688 106.1875 -97.359375 C 99.875 -103.410156 92.625 -106.4375 84.4375 -106.4375 C 76.25 -106.4375 69 -103.363281 62.6875 -97.21875 C 56.375 -91.082031 53.21875 -82.382812 53.21875 -71.125 C 53.21875 -59.875 56.375 -51.21875 62.6875 -45.15625 C 69 -39.101562 76.25 -36.078125 84.4375 -36.078125 C 92.625 -36.078125 99.875 -39.144531 106.1875 -45.28125 Z M 27.625 -18.671875 C 15.007812 -32.328125 8.703125 -49.816406 8.703125 -71.140625 C 8.703125 -92.460938 15.007812 -109.988281 27.625 -123.71875 C 40.25 -137.445312 55.644531 -144.3125 73.8125 -144.3125 C 91.988281 -144.3125 105.9375 -137.570312 115.65625 -124.09375 L 115.65625 -142.78125 L 159.40625 -142.78125 L 159.40625 0 L 115.65625 0 L 115.65625 -20.71875 C 105.082031 -5.707031 90.921875 1.796875 73.171875 1.796875 C 55.429688 1.796875 40.25 -5.023438 27.625 -18.671875 Z M 27.625 -18.671875 "/></g></g></g><g fill="#7610ad" fill-opacity="0.502"><g transform="translate(876.024085, 469.887338)"><g><path d="M 139.703125 -142.78125 L 93.65625 -73.6875 L 139.703125 0 L 90.578125 0 L 67.296875 -37.109375 L 44.265625 0 L 1.03125 0 L 47.34375 -69.09375 L 1.03125 -142.78125 L 50.15625 -142.78125 L 73.4375 -105.671875 L 96.46875 -142.78125 Z M 139.703125 -142.78125 "/></g></g></g><g fill="#1649ff" fill-opacity="1"><g transform="translate(443.520413, 460.840514)"><g><path d="M 6.90625 -146.359375 L 6.90625 -179.625 L 148.65625 -179.625 L 148.65625 -146.359375 L 99.53125 -146.359375 L 99.53125 0 L 55.78125 0 L 55.78125 -146.359375 Z M 6.90625 -146.359375 "/></g></g></g><g fill="#1649ff" fill-opacity="1"><g transform="translate(592.689837, 460.840514)"><g><path d="M 62.9375 -142.78125 L 62.9375 -116.171875 C 73.175781 -134.929688 86.828125 -144.3125 103.890625 -144.3125 L 103.890625 -99.796875 L 93.140625 -99.796875 C 83.078125 -99.796875 75.523438 -97.40625 70.484375 -92.625 C 65.453125 -87.851562 62.9375 -79.492188 62.9375 -67.546875 L 62.9375 0 L 19.1875 0 L 19.1875 -142.78125 Z M 62.9375 -142.78125 "/></g></g></g><g fill="#1649ff" fill-opacity="1"><g transform="translate(694.779914, 460.840514)"><g><path d="M 106.1875 -45.28125 C 112.5 -51.425781 115.65625 -60.128906 115.65625 -71.390625 C 115.65625 -82.648438 112.5 -91.304688 106.1875 -97.359375 C 99.875 -103.410156 92.625 -106.4375 84.4375 -106.4375 C 76.25 -106.4375 69 -103.363281 62.6875 -97.21875 C 56.375 -91.082031 53.21875 -82.382812 53.21875 -71.125 C 53.21875 -59.875 56.375 -51.21875 62.6875 -45.15625 C 69 -39.101562 76.25 -36.078125 84.4375 -36.078125 C 92.625 -36.078125 99.875 -39.144531 106.1875 -45.28125 Z M 27.625 -18.671875 C 15.007812 -32.328125 8.703125 -49.816406 8.703125 -71.140625 C 8.703125 -92.460938 15.007812 -109.988281 27.625 -123.71875 C 40.25 -137.445312 55.644531 -144.3125 73.8125 -144.3125 C 91.988281 -144.3125 105.9375 -137.570312 115.65625 -124.09375 L 115.65625 -142.78125 L 159.40625 -142.78125 L 159.40625 0 L 115.65625 0 L 115.65625 -20.71875 C 105.082031 -5.707031 90.921875 1.796875 73.171875 1.796875 C 55.429688 1.796875 40.25 -5.023438 27.625 -18.671875 Z M 27.625 -18.671875 "/></g></g></g><g fill="#1649ff" fill-opacity="1"><g transform="translate(866.97726, 460.840514)"><g><path d="M 139.703125 -142.78125 L 93.65625 -73.6875 L 139.703125 0 L 90.578125 0 L 67.296875 -37.109375 L 44.265625 0 L 1.03125 0 L 47.34375 -69.09375 L 1.03125 -142.78125 L 50.15625 -142.78125 L 73.4375 -105.671875 L 96.46875 -142.78125 Z M 139.703125 -142.78125 "/></g></g></g></svg>