<svg xmlns="http://www.w3.org/2000/svg" xmlns:xlink="http://www.w3.org/1999/xlink" width="1366" zoomAndPan="magnify" viewBox="0 0 1024.5 576" height="768" preserveAspectRatio="xMidYMid meet" version="1.0"><defs><filter x="0%" y="0%" width="100%" height="100%" id="5d820b6aa4"><feColorMatrix values="0 0 0 0 1 0 0 0 0 1 0 0 0 0 1 0 0 0 1 0" color-interpolation-filters="sRGB"/></filter><g/><mask id="925555bf2d"><g filter="url(#5d820b6aa4)"><rect x="-102.45" width="1229.4" fill="#000000" y="-57.6" height="691.2" fill-opacity="0.4"/></g></mask><clipPath id="f8a62c5874"><path d="M 0.0546875 0.304688 L 237 0.304688 L 237 1.984375 L 0.0546875 1.984375 Z M 0.0546875 0.304688 " clip-rule="nonzero"/></clipPath><clipPath id="1da0a8ab0d"><rect x="0" width="238" y="0" height="2"/></clipPath><mask id="b34d702899"><g filter="url(#5d820b6aa4)"><rect x="-102.45" width="1229.4" fill="#000000" y="-57.6" height="691.2" fill-opacity="0.4"/></g></mask><clipPath id="d01077664a"><path d="M 0.0546875 0.8125 L 237 0.8125 L 237 2.492188 L 0.0546875 2.492188 Z M 0.0546875 0.8125 " clip-rule="nonzero"/></clipPath><clipPath id="7bc87421c6"><rect x="0" width="238" y="0" height="3"/></clipPath><mask id="b6968aaf04"><g filter="url(#5d820b6aa4)"><rect x="-102.45" width="1229.4" fill="#000000" y="-57.6" height="691.2" fill-opacity="0.4"/></g></mask><clipPath id="b26aa41c2f"><path d="M 0.0234375 0.171875 L 237 0.171875 L 237 1.851562 L 0.0234375 1.851562 Z M 0.0234375 0.171875 " clip-rule="nonzero"/></clipPath><clipPath id="6253053c7a"><rect x="0" width="238" y="0" height="2"/></clipPath><mask id="96ef439a74"><g filter="url(#5d820b6aa4)"><rect x="-102.45" width="1229.4" fill="#000000" y="-57.6" height="691.2" fill-opacity="0.4"/></g></mask><clipPath id="7f01d69d04"><path d="M 0.0234375 0.425781 L 237 0.425781 L 237 2 L 0.0234375 2 Z M 0.0234375 0.425781 " clip-rule="nonzero"/></clipPath><clipPath id="5d82e07da5"><rect x="0" width="238" y="0" height="3"/></clipPath></defs><g mask="url(#925555bf2d)"><g transform="matrix(1, 0, 0, 1, 378, 239)"><g clip-path="url(#1da0a8ab0d)"><g clip-path="url(#f8a62c5874)"><path stroke-linecap="butt" transform="matrix(0.749634, 0, 0, 0.749634, 0.890206, 0.372707)" fill="none" stroke-linejoin="miter" d="M 0.00055864 0.998336 L 313.247125 0.998336 " stroke="#f60101" stroke-width="2" stroke-opacity="1" stroke-miterlimit="4"/></g></g></g></g><g mask="url(#b34d702899)"><g transform="matrix(1, 0, 0, 1, 378, 262)"><g clip-path="url(#7bc87421c6)"><g clip-path="url(#d01077664a)"><path stroke-linecap="butt" transform="matrix(0.749634, 0, 0, 0.749634, 0.890206, 0.854732)" fill="none" stroke-linejoin="miter" d="M 0.00055864 1.001471 L 313.247125 1.001471 " stroke="#f60101" stroke-width="2" stroke-opacity="1" stroke-miterlimit="4"/></g></g></g></g><g fill="#0e9427" fill-opacity="0.302"><g transform="translate(268.551972, 281.169345)"><g><path d="M 15.71875 -10.828125 C 7.8125 -18.515625 3.859375 -28.257812 3.859375 -40.0625 C 3.859375 -51.863281 7.8125 -61.601562 15.71875 -69.28125 C 23.625 -76.957031 33.289062 -80.796875 44.71875 -80.796875 C 53.5625 -80.796875 61.425781 -78.453125 68.3125 -73.765625 C 75.195312 -69.078125 80.003906 -62.570312 82.734375 -54.25 L 59.578125 -54.25 C 56.554688 -60.070312 51.710938 -62.984375 45.046875 -62.984375 C 38.390625 -62.984375 33.148438 -60.898438 29.328125 -56.734375 C 25.515625 -52.578125 23.609375 -47.019531 23.609375 -40.0625 C 23.609375 -33.101562 25.515625 -27.539062 29.328125 -23.375 C 33.148438 -19.21875 38.28125 -17.140625 44.71875 -17.140625 C 49.332031 -17.140625 53.09375 -18.289062 56 -20.59375 C 58.914062 -22.90625 60.863281 -25.988281 61.84375 -29.84375 L 39.375 -29.84375 L 39.375 -44.59375 L 82.734375 -44.59375 L 82.734375 -29.84375 C 81.296875 -22.582031 77.320312 -15.8125 70.8125 -9.53125 C 67.707031 -6.507812 63.867188 -4.050781 59.296875 -2.15625 C 54.722656 -0.257812 49.863281 0.6875 44.71875 0.6875 C 33.289062 0.6875 23.625 -3.148438 15.71875 -10.828125 Z M 15.71875 -10.828125 "/></g></g></g><g fill="#0e9427" fill-opacity="0.302"><g transform="translate(352.420096, 281.169345)"><g><path d="M 46.53125 -19.859375 C 49.101562 -22.578125 50.390625 -26.507812 50.390625 -31.65625 C 50.390625 -36.800781 49.0625 -40.71875 46.40625 -43.40625 C 43.757812 -46.09375 40.617188 -47.4375 36.984375 -47.4375 C 33.359375 -47.4375 30.238281 -46.09375 27.625 -43.40625 C 25.019531 -40.71875 23.71875 -36.800781 23.71875 -31.65625 C 23.71875 -26.507812 25.0625 -22.578125 27.75 -19.859375 C 30.4375 -17.140625 33.59375 -15.78125 37.21875 -15.78125 C 40.851562 -15.78125 43.957031 -17.140625 46.53125 -19.859375 Z M 13.5625 -8.171875 C 7.164062 -14.148438 3.96875 -22.019531 3.96875 -31.78125 C 3.96875 -41.539062 7.144531 -49.347656 13.5 -55.203125 C 19.851562 -61.066406 27.722656 -64 37.109375 -64 C 46.492188 -64 54.34375 -61.066406 60.65625 -55.203125 C 66.976562 -49.347656 70.140625 -41.539062 70.140625 -31.78125 C 70.140625 -22.019531 67 -14.148438 60.71875 -8.171875 C 54.4375 -2.191406 46.601562 0.796875 37.21875 0.796875 C 27.84375 0.796875 19.957031 -2.191406 13.5625 -8.171875 Z M 13.5625 -8.171875 "/></g></g></g><g fill="#0e9427" fill-opacity="0.302"><g transform="translate(423.690944, 281.169345)"><g><path d="M 46.53125 -19.859375 C 49.101562 -22.578125 50.390625 -26.507812 50.390625 -31.65625 C 50.390625 -36.800781 49.0625 -40.71875 46.40625 -43.40625 C 43.757812 -46.09375 40.617188 -47.4375 36.984375 -47.4375 C 33.359375 -47.4375 30.238281 -46.09375 27.625 -43.40625 C 25.019531 -40.71875 23.71875 -36.800781 23.71875 -31.65625 C 23.71875 -26.507812 25.0625 -22.578125 27.75 -19.859375 C 30.4375 -17.140625 33.59375 -15.78125 37.21875 -15.78125 C 40.851562 -15.78125 43.957031 -17.140625 46.53125 -19.859375 Z M 13.5625 -8.171875 C 7.164062 -14.148438 3.96875 -22.019531 3.96875 -31.78125 C 3.96875 -41.539062 7.144531 -49.347656 13.5 -55.203125 C 19.851562 -61.066406 27.722656 -64 37.109375 -64 C 46.492188 -64 54.34375 -61.066406 60.65625 -55.203125 C 66.976562 -49.347656 70.140625 -41.539062 70.140625 -31.78125 C 70.140625 -22.019531 67 -14.148438 60.71875 -8.171875 C 54.4375 -2.191406 46.601562 0.796875 37.21875 0.796875 C 27.84375 0.796875 19.957031 -2.191406 13.5625 -8.171875 Z M 13.5625 -8.171875 "/></g></g></g><g fill="#0e9427" fill-opacity="0.302"><g transform="translate(494.961791, 281.169345)"><g><path d="M 47.09375 -20.078125 C 49.894531 -22.804688 51.296875 -26.664062 51.296875 -31.65625 C 51.296875 -36.65625 49.894531 -40.492188 47.09375 -43.171875 C 44.289062 -45.859375 41.070312 -47.203125 37.4375 -47.203125 C 33.8125 -47.203125 30.597656 -45.835938 27.796875 -43.109375 C 25.003906 -40.390625 23.609375 -36.535156 23.609375 -31.546875 C 23.609375 -26.554688 25.003906 -22.71875 27.796875 -20.03125 C 30.597656 -17.34375 33.8125 -16 37.4375 -16 C 41.070312 -16 44.289062 -17.359375 47.09375 -20.078125 Z M 12.25 -8.28125 C 6.65625 -14.332031 3.859375 -22.085938 3.859375 -31.546875 C 3.859375 -41.003906 6.65625 -48.773438 12.25 -54.859375 C 17.851562 -60.953125 24.679688 -64 32.734375 -64 C 40.796875 -64 46.984375 -61.015625 51.296875 -55.046875 L 51.296875 -83.984375 L 70.703125 -83.984375 L 70.703125 0 L 51.296875 0 L 51.296875 -9.1875 C 46.609375 -2.53125 40.328125 0.796875 32.453125 0.796875 C 24.585938 0.796875 17.851562 -2.226562 12.25 -8.28125 Z M 12.25 -8.28125 "/></g></g></g><g fill="#0e9427" fill-opacity="0.502"><g transform="translate(264.539261, 277.156651)"><g><path d="M 15.71875 -10.828125 C 7.8125 -18.515625 3.859375 -28.257812 3.859375 -40.0625 C 3.859375 -51.863281 7.8125 -61.601562 15.71875 -69.28125 C 23.625 -76.957031 33.289062 -80.796875 44.71875 -80.796875 C 53.5625 -80.796875 61.425781 -78.453125 68.3125 -73.765625 C 75.195312 -69.078125 80.003906 -62.570312 82.734375 -54.25 L 59.578125 -54.25 C 56.554688 -60.070312 51.710938 -62.984375 45.046875 -62.984375 C 38.390625 -62.984375 33.148438 -60.898438 29.328125 -56.734375 C 25.515625 -52.578125 23.609375 -47.019531 23.609375 -40.0625 C 23.609375 -33.101562 25.515625 -27.539062 29.328125 -23.375 C 33.148438 -19.21875 38.28125 -17.140625 44.71875 -17.140625 C 49.332031 -17.140625 53.09375 -18.289062 56 -20.59375 C 58.914062 -22.90625 60.863281 -25.988281 61.84375 -29.84375 L 39.375 -29.84375 L 39.375 -44.59375 L 82.734375 -44.59375 L 82.734375 -29.84375 C 81.296875 -22.582031 77.320312 -15.8125 70.8125 -9.53125 C 67.707031 -6.507812 63.867188 -4.050781 59.296875 -2.15625 C 54.722656 -0.257812 49.863281 0.6875 44.71875 0.6875 C 33.289062 0.6875 23.625 -3.148438 15.71875 -10.828125 Z M 15.71875 -10.828125 "/></g></g></g><g fill="#0e9427" fill-opacity="0.502"><g transform="translate(348.407385, 277.156651)"><g><path d="M 46.53125 -19.859375 C 49.101562 -22.578125 50.390625 -26.507812 50.390625 -31.65625 C 50.390625 -36.800781 49.0625 -40.71875 46.40625 -43.40625 C 43.757812 -46.09375 40.617188 -47.4375 36.984375 -47.4375 C 33.359375 -47.4375 30.238281 -46.09375 27.625 -43.40625 C 25.019531 -40.71875 23.71875 -36.800781 23.71875 -31.65625 C 23.71875 -26.507812 25.0625 -22.578125 27.75 -19.859375 C 30.4375 -17.140625 33.59375 -15.78125 37.21875 -15.78125 C 40.851562 -15.78125 43.957031 -17.140625 46.53125 -19.859375 Z M 13.5625 -8.171875 C 7.164062 -14.148438 3.96875 -22.019531 3.96875 -31.78125 C 3.96875 -41.539062 7.144531 -49.347656 13.5 -55.203125 C 19.851562 -61.066406 27.722656 -64 37.109375 -64 C 46.492188 -64 54.34375 -61.066406 60.65625 -55.203125 C 66.976562 -49.347656 70.140625 -41.539062 70.140625 -31.78125 C 70.140625 -22.019531 67 -14.148438 60.71875 -8.171875 C 54.4375 -2.191406 46.601562 0.796875 37.21875 0.796875 C 27.84375 0.796875 19.957031 -2.191406 13.5625 -8.171875 Z M 13.5625 -8.171875 "/></g></g></g><g fill="#0e9427" fill-opacity="0.502"><g transform="translate(419.678233, 277.156651)"><g><path d="M 46.53125 -19.859375 C 49.101562 -22.578125 50.390625 -26.507812 50.390625 -31.65625 C 50.390625 -36.800781 49.0625 -40.71875 46.40625 -43.40625 C 43.757812 -46.09375 40.617188 -47.4375 36.984375 -47.4375 C 33.359375 -47.4375 30.238281 -46.09375 27.625 -43.40625 C 25.019531 -40.71875 23.71875 -36.800781 23.71875 -31.65625 C 23.71875 -26.507812 25.0625 -22.578125 27.75 -19.859375 C 30.4375 -17.140625 33.59375 -15.78125 37.21875 -15.78125 C 40.851562 -15.78125 43.957031 -17.140625 46.53125 -19.859375 Z M 13.5625 -8.171875 C 7.164062 -14.148438 3.96875 -22.019531 3.96875 -31.78125 C 3.96875 -41.539062 7.144531 -49.347656 13.5 -55.203125 C 19.851562 -61.066406 27.722656 -64 37.109375 -64 C 46.492188 -64 54.34375 -61.066406 60.65625 -55.203125 C 66.976562 -49.347656 70.140625 -41.539062 70.140625 -31.78125 C 70.140625 -22.019531 67 -14.148438 60.71875 -8.171875 C 54.4375 -2.191406 46.601562 0.796875 37.21875 0.796875 C 27.84375 0.796875 19.957031 -2.191406 13.5625 -8.171875 Z M 13.5625 -8.171875 "/></g></g></g><g fill="#0e9427" fill-opacity="0.502"><g transform="translate(490.94908, 277.156651)"><g><path d="M 47.09375 -20.078125 C 49.894531 -22.804688 51.296875 -26.664062 51.296875 -31.65625 C 51.296875 -36.65625 49.894531 -40.492188 47.09375 -43.171875 C 44.289062 -45.859375 41.070312 -47.203125 37.4375 -47.203125 C 33.8125 -47.203125 30.597656 -45.835938 27.796875 -43.109375 C 25.003906 -40.390625 23.609375 -36.535156 23.609375 -31.546875 C 23.609375 -26.554688 25.003906 -22.71875 27.796875 -20.03125 C 30.597656 -17.34375 33.8125 -16 37.4375 -16 C 41.070312 -16 44.289062 -17.359375 47.09375 -20.078125 Z M 12.25 -8.28125 C 6.65625 -14.332031 3.859375 -22.085938 3.859375 -31.546875 C 3.859375 -41.003906 6.65625 -48.773438 12.25 -54.859375 C 17.851562 -60.953125 24.679688 -64 32.734375 -64 C 40.796875 -64 46.984375 -61.015625 51.296875 -55.046875 L 51.296875 -83.984375 L 70.703125 -83.984375 L 70.703125 0 L 51.296875 0 L 51.296875 -9.1875 C 46.609375 -2.53125 40.328125 0.796875 32.453125 0.796875 C 24.585938 0.796875 17.851562 -2.226562 12.25 -8.28125 Z M 12.25 -8.28125 "/></g></g></g><g fill="#1649ff" fill-opacity="1"><g transform="translate(260.526552, 273.143942)"><g><path d="M 15.71875 -10.828125 C 7.8125 -18.515625 3.859375 -28.257812 3.859375 -40.0625 C 3.859375 -51.863281 7.8125 -61.601562 15.71875 -69.28125 C 23.625 -76.957031 33.289062 -80.796875 44.71875 -80.796875 C 53.5625 -80.796875 61.425781 -78.453125 68.3125 -73.765625 C 75.195312 -69.078125 80.003906 -62.570312 82.734375 -54.25 L 59.578125 -54.25 C 56.554688 -60.070312 51.710938 -62.984375 45.046875 -62.984375 C 38.390625 -62.984375 33.148438 -60.898438 29.328125 -56.734375 C 25.515625 -52.578125 23.609375 -47.019531 23.609375 -40.0625 C 23.609375 -33.101562 25.515625 -27.539062 29.328125 -23.375 C 33.148438 -19.21875 38.28125 -17.140625 44.71875 -17.140625 C 49.332031 -17.140625 53.09375 -18.289062 56 -20.59375 C 58.914062 -22.90625 60.863281 -25.988281 61.84375 -29.84375 L 39.375 -29.84375 L 39.375 -44.59375 L 82.734375 -44.59375 L 82.734375 -29.84375 C 81.296875 -22.582031 77.320312 -15.8125 70.8125 -9.53125 C 67.707031 -6.507812 63.867188 -4.050781 59.296875 -2.15625 C 54.722656 -0.257812 49.863281 0.6875 44.71875 0.6875 C 33.289062 0.6875 23.625 -3.148438 15.71875 -10.828125 Z M 15.71875 -10.828125 "/></g></g></g><g fill="#1649ff" fill-opacity="1"><g transform="translate(344.394676, 273.143942)"><g><path d="M 46.53125 -19.859375 C 49.101562 -22.578125 50.390625 -26.507812 50.390625 -31.65625 C 50.390625 -36.800781 49.0625 -40.71875 46.40625 -43.40625 C 43.757812 -46.09375 40.617188 -47.4375 36.984375 -47.4375 C 33.359375 -47.4375 30.238281 -46.09375 27.625 -43.40625 C 25.019531 -40.71875 23.71875 -36.800781 23.71875 -31.65625 C 23.71875 -26.507812 25.0625 -22.578125 27.75 -19.859375 C 30.4375 -17.140625 33.59375 -15.78125 37.21875 -15.78125 C 40.851562 -15.78125 43.957031 -17.140625 46.53125 -19.859375 Z M 13.5625 -8.171875 C 7.164062 -14.148438 3.96875 -22.019531 3.96875 -31.78125 C 3.96875 -41.539062 7.144531 -49.347656 13.5 -55.203125 C 19.851562 -61.066406 27.722656 -64 37.109375 -64 C 46.492188 -64 54.34375 -61.066406 60.65625 -55.203125 C 66.976562 -49.347656 70.140625 -41.539062 70.140625 -31.78125 C 70.140625 -22.019531 67 -14.148438 60.71875 -8.171875 C 54.4375 -2.191406 46.601562 0.796875 37.21875 0.796875 C 27.84375 0.796875 19.957031 -2.191406 13.5625 -8.171875 Z M 13.5625 -8.171875 "/></g></g></g><g fill="#1649ff" fill-opacity="1"><g transform="translate(415.665524, 273.143942)"><g><path d="M 46.53125 -19.859375 C 49.101562 -22.578125 50.390625 -26.507812 50.390625 -31.65625 C 50.390625 -36.800781 49.0625 -40.71875 46.40625 -43.40625 C 43.757812 -46.09375 40.617188 -47.4375 36.984375 -47.4375 C 33.359375 -47.4375 30.238281 -46.09375 27.625 -43.40625 C 25.019531 -40.71875 23.71875 -36.800781 23.71875 -31.65625 C 23.71875 -26.507812 25.0625 -22.578125 27.75 -19.859375 C 30.4375 -17.140625 33.59375 -15.78125 37.21875 -15.78125 C 40.851562 -15.78125 43.957031 -17.140625 46.53125 -19.859375 Z M 13.5625 -8.171875 C 7.164062 -14.148438 3.96875 -22.019531 3.96875 -31.78125 C 3.96875 -41.539062 7.144531 -49.347656 13.5 -55.203125 C 19.851562 -61.066406 27.722656 -64 37.109375 -64 C 46.492188 -64 54.34375 -61.066406 60.65625 -55.203125 C 66.976562 -49.347656 70.140625 -41.539062 70.140625 -31.78125 C 70.140625 -22.019531 67 -14.148438 60.71875 -8.171875 C 54.4375 -2.191406 46.601562 0.796875 37.21875 0.796875 C 27.84375 0.796875 19.957031 -2.191406 13.5625 -8.171875 Z M 13.5625 -8.171875 "/></g></g></g><g fill="#1649ff" fill-opacity="1"><g transform="translate(486.936372, 273.143942)"><g><path d="M 47.09375 -20.078125 C 49.894531 -22.804688 51.296875 -26.664062 51.296875 -31.65625 C 51.296875 -36.65625 49.894531 -40.492188 47.09375 -43.171875 C 44.289062 -45.859375 41.070312 -47.203125 37.4375 -47.203125 C 33.8125 -47.203125 30.597656 -45.835938 27.796875 -43.109375 C 25.003906 -40.390625 23.609375 -36.535156 23.609375 -31.546875 C 23.609375 -26.554688 25.003906 -22.71875 27.796875 -20.03125 C 30.597656 -17.34375 33.8125 -16 37.4375 -16 C 41.070312 -16 44.289062 -17.359375 47.09375 -20.078125 Z M 12.25 -8.28125 C 6.65625 -14.332031 3.859375 -22.085938 3.859375 -31.546875 C 3.859375 -41.003906 6.65625 -48.773438 12.25 -54.859375 C 17.851562 -60.953125 24.679688 -64 32.734375 -64 C 40.796875 -64 46.984375 -61.015625 51.296875 -55.046875 L 51.296875 -83.984375 L 70.703125 -83.984375 L 70.703125 0 L 51.296875 0 L 51.296875 -9.1875 C 46.609375 -2.53125 40.328125 0.796875 32.453125 0.796875 C 24.585938 0.796875 17.851562 -2.226562 12.25 -8.28125 Z M 12.25 -8.28125 "/></g></g></g><g mask="url(#b6968aaf04)"><g transform="matrix(1, 0, 0, 1, 527, 343)"><g clip-path="url(#6253053c7a)"><g clip-path="url(#b26aa41c2f)"><path stroke-linecap="butt" transform="matrix(0.749634, 0, 0, 0.749634, 0.883793, 0.229858)" fill="none" stroke-linejoin="miter" d="M -0.00130844 1.001303 L 313.245258 1.001303 " stroke="#f60101" stroke-width="2" stroke-opacity="1" stroke-miterlimit="4"/></g></g></g></g><g mask="url(#96ef439a74)"><g transform="matrix(1, 0, 0, 1, 527, 319)"><g clip-path="url(#5d82e07da5)"><g clip-path="url(#7f01d69d04)"><path stroke-linecap="butt" transform="matrix(0.749634, 0, 0, 0.749634, 0.883793, 0.457174)" fill="none" stroke-linejoin="miter" d="M -0.00130844 1.000298 L 313.245258 1.000298 " stroke="#f60101" stroke-width="2" stroke-opacity="1" stroke-miterlimit="4"/></g></g></g></g><g fill="#7610ad" fill-opacity="0.302"><g transform="translate(466.693414, 359.7862)"><g><path d="M 3.0625 -64.90625 L 3.0625 -79.671875 L 65.9375 -79.671875 L 65.9375 -64.90625 L 44.140625 -64.90625 L 44.140625 0 L 24.734375 0 L 24.734375 -64.90625 Z M 3.0625 -64.90625 "/></g></g></g><g fill="#7610ad" fill-opacity="0.302"><g transform="translate(532.857264, 359.7862)"><g><path d="M 27.921875 -63.328125 L 27.921875 -51.515625 C 32.453125 -59.835938 38.503906 -64 46.078125 -64 L 46.078125 -44.265625 L 41.3125 -44.265625 C 36.84375 -44.265625 33.492188 -43.203125 31.265625 -41.078125 C 29.035156 -38.960938 27.921875 -35.253906 27.921875 -29.953125 L 27.921875 0 L 8.515625 0 L 8.515625 -63.328125 Z M 27.921875 -63.328125 "/></g></g></g><g fill="#7610ad" fill-opacity="0.302"><g transform="translate(578.139148, 359.7862)"><g><path d="M 47.09375 -20.078125 C 49.894531 -22.804688 51.296875 -26.664062 51.296875 -31.65625 C 51.296875 -36.65625 49.894531 -40.492188 47.09375 -43.171875 C 44.289062 -45.859375 41.070312 -47.203125 37.4375 -47.203125 C 33.8125 -47.203125 30.597656 -45.835938 27.796875 -43.109375 C 25.003906 -40.390625 23.609375 -36.535156 23.609375 -31.546875 C 23.609375 -26.554688 25.003906 -22.71875 27.796875 -20.03125 C 30.597656 -17.34375 33.8125 -16 37.4375 -16 C 41.070312 -16 44.289062 -17.359375 47.09375 -20.078125 Z M 12.25 -8.28125 C 6.65625 -14.332031 3.859375 -22.085938 3.859375 -31.546875 C 3.859375 -41.003906 6.65625 -48.773438 12.25 -54.859375 C 17.851562 -60.953125 24.679688 -64 32.734375 -64 C 40.796875 -64 46.984375 -61.015625 51.296875 -55.046875 L 51.296875 -63.328125 L 70.703125 -63.328125 L 70.703125 0 L 51.296875 0 L 51.296875 -9.1875 C 46.609375 -2.53125 40.328125 0.796875 32.453125 0.796875 C 24.585938 0.796875 17.851562 -2.226562 12.25 -8.28125 Z M 12.25 -8.28125 "/></g></g></g><g fill="#7610ad" fill-opacity="0.302"><g transform="translate(654.516993, 359.7862)"><g><path d="M 61.96875 -63.328125 L 41.53125 -32.6875 L 61.96875 0 L 40.171875 0 L 29.84375 -16.453125 L 19.625 0 L 0.453125 0 L 21 -30.640625 L 0.453125 -63.328125 L 22.25 -63.328125 L 32.5625 -46.875 L 42.78125 -63.328125 Z M 61.96875 -63.328125 "/></g></g></g><g fill="#7610ad" fill-opacity="0.502"><g transform="translate(462.680701, 355.773489)"><g><path d="M 3.0625 -64.90625 L 3.0625 -79.671875 L 65.9375 -79.671875 L 65.9375 -64.90625 L 44.140625 -64.90625 L 44.140625 0 L 24.734375 0 L 24.734375 -64.90625 Z M 3.0625 -64.90625 "/></g></g></g><g fill="#7610ad" fill-opacity="0.502"><g transform="translate(528.84455, 355.773489)"><g><path d="M 27.921875 -63.328125 L 27.921875 -51.515625 C 32.453125 -59.835938 38.503906 -64 46.078125 -64 L 46.078125 -44.265625 L 41.3125 -44.265625 C 36.84375 -44.265625 33.492188 -43.203125 31.265625 -41.078125 C 29.035156 -38.960938 27.921875 -35.253906 27.921875 -29.953125 L 27.921875 0 L 8.515625 0 L 8.515625 -63.328125 Z M 27.921875 -63.328125 "/></g></g></g><g fill="#7610ad" fill-opacity="0.502"><g transform="translate(574.126434, 355.773489)"><g><path d="M 47.09375 -20.078125 C 49.894531 -22.804688 51.296875 -26.664062 51.296875 -31.65625 C 51.296875 -36.65625 49.894531 -40.492188 47.09375 -43.171875 C 44.289062 -45.859375 41.070312 -47.203125 37.4375 -47.203125 C 33.8125 -47.203125 30.597656 -45.835938 27.796875 -43.109375 C 25.003906 -40.390625 23.609375 -36.535156 23.609375 -31.546875 C 23.609375 -26.554688 25.003906 -22.71875 27.796875 -20.03125 C 30.597656 -17.34375 33.8125 -16 37.4375 -16 C 41.070312 -16 44.289062 -17.359375 47.09375 -20.078125 Z M 12.25 -8.28125 C 6.65625 -14.332031 3.859375 -22.085938 3.859375 -31.546875 C 3.859375 -41.003906 6.65625 -48.773438 12.25 -54.859375 C 17.851562 -60.953125 24.679688 -64 32.734375 -64 C 40.796875 -64 46.984375 -61.015625 51.296875 -55.046875 L 51.296875 -63.328125 L 70.703125 -63.328125 L 70.703125 0 L 51.296875 0 L 51.296875 -9.1875 C 46.609375 -2.53125 40.328125 0.796875 32.453125 0.796875 C 24.585938 0.796875 17.851562 -2.226562 12.25 -8.28125 Z M 12.25 -8.28125 "/></g></g></g><g fill="#7610ad" fill-opacity="0.502"><g transform="translate(650.50428, 355.773489)"><g><path d="M 61.96875 -63.328125 L 41.53125 -32.6875 L 61.96875 0 L 40.171875 0 L 29.84375 -16.453125 L 19.625 0 L 0.453125 0 L 21 -30.640625 L 0.453125 -63.328125 L 22.25 -63.328125 L 32.5625 -46.875 L 42.78125 -63.328125 Z M 61.96875 -63.328125 "/></g></g></g><g fill="#1649ff" fill-opacity="1"><g transform="translate(458.667987, 351.76078)"><g><path d="M 3.0625 -64.90625 L 3.0625 -79.671875 L 65.9375 -79.671875 L 65.9375 -64.90625 L 44.140625 -64.90625 L 44.140625 0 L 24.734375 0 L 24.734375 -64.90625 Z M 3.0625 -64.90625 "/></g></g></g><g fill="#1649ff" fill-opacity="1"><g transform="translate(524.831837, 351.76078)"><g><path d="M 27.921875 -63.328125 L 27.921875 -51.515625 C 32.453125 -59.835938 38.503906 -64 46.078125 -64 L 46.078125 -44.265625 L 41.3125 -44.265625 C 36.84375 -44.265625 33.492188 -43.203125 31.265625 -41.078125 C 29.035156 -38.960938 27.921875 -35.253906 27.921875 -29.953125 L 27.921875 0 L 8.515625 0 L 8.515625 -63.328125 Z M 27.921875 -63.328125 "/></g></g></g><g fill="#1649ff" fill-opacity="1"><g transform="translate(570.113721, 351.76078)"><g><path d="M 47.09375 -20.078125 C 49.894531 -22.804688 51.296875 -26.664062 51.296875 -31.65625 C 51.296875 -36.65625 49.894531 -40.492188 47.09375 -43.171875 C 44.289062 -45.859375 41.070312 -47.203125 37.4375 -47.203125 C 33.8125 -47.203125 30.597656 -45.835938 27.796875 -43.109375 C 25.003906 -40.390625 23.609375 -36.535156 23.609375 -31.546875 C 23.609375 -26.554688 25.003906 -22.71875 27.796875 -20.03125 C 30.597656 -17.34375 33.8125 -16 37.4375 -16 C 41.070312 -16 44.289062 -17.359375 47.09375 -20.078125 Z M 12.25 -8.28125 C 6.65625 -14.332031 3.859375 -22.085938 3.859375 -31.546875 C 3.859375 -41.003906 6.65625 -48.773438 12.25 -54.859375 C 17.851562 -60.953125 24.679688 -64 32.734375 -64 C 40.796875 -64 46.984375 -61.015625 51.296875 -55.046875 L 51.296875 -63.328125 L 70.703125 -63.328125 L 70.703125 0 L 51.296875 0 L 51.296875 -9.1875 C 46.609375 -2.53125 40.328125 0.796875 32.453125 0.796875 C 24.585938 0.796875 17.851562 -2.226562 12.25 -8.28125 Z M 12.25 -8.28125 "/></g></g></g><g fill="#1649ff" fill-opacity="1"><g transform="translate(646.491567, 351.76078)"><g><path d="M 61.96875 -63.328125 L 41.53125 -32.6875 L 61.96875 0 L 40.171875 0 L 29.84375 -16.453125 L 19.625 0 L 0.453125 0 L 21 -30.640625 L 0.453125 -63.328125 L 22.25 -63.328125 L 32.5625 -46.875 L 42.78125 -63.328125 Z M 61.96875 -63.328125 "/></g></g></g></svg>